<?xml version="1.0" encoding="utf-8"?>
<!-- Generator: Adobe Illustrator 25.0.1, SVG Export Plug-In . SVG Version: 6.00 Build 0)  -->
<svg version="1.1" id="Layer_1" xmlns="http://www.w3.org/2000/svg" xmlns:xlink="http://www.w3.org/1999/xlink" x="0px" y="0px"
	 width="200px" height="200px" viewBox="0 0 200 200" style="enable-background:new 0 0 200 200;" xml:space="preserve">
<style type="text/css">
	.st0{opacity:0.3;}
	.st1{fill:#102770;}
	.st2{fill:#FF5722;}
	.st3{fill:#8BC34A;}
	.st4{fill:#19B5FE;}
	.st5{fill:#FFCA28;}
	.st6{opacity:0.3;fill-rule:evenodd;clip-rule:evenodd;fill:#FFC92B;}
</style>
<g class="st0">
	<path class="st1" d="M28.8,90.3c-0.3,0-0.5-0.2-0.6-0.4c-0.9-2.3-2-3.8-3.3-4.3c-0.1,0.4-0.3,0.9-0.5,1.3c-0.4,0.8-1.1,1.5-2,1.7
		c-0.9,0.3-1.8,0-2.3-0.8c-0.3-0.5-0.3-1.1,0-1.7c0.6-1,2-2,3.6-2c0.1-2.9-1.9-5.2-2.2-5.5c0,0-0.1,0-0.1-0.1
		c-0.3,0.9-0.8,1.7-1.6,2.3c-1.8,1.4-3.6,1.7-5.2,0.7c-1.1-0.6-1.6-2-1.2-3.3c0.5-1.4,1.3-2.3,2.5-2.7c1.2-0.4,2.7-0.2,4.4,0.7
		c-0.1-2.3-0.8-4-2.2-5.1c-2.7-2.2-7.1-1.4-7.1-1.3c-0.4,0.1-0.7-0.2-0.8-0.5c-0.1-0.4,0.2-0.7,0.5-0.8c0.2,0,5-1,8.2,1.6
		c1.8,1.5,2.7,3.8,2.7,6.9c0.2,0.1,0.4,0.3,0.7,0.4l0.1,0.1c0.1,0.1,2.8,3,2.6,6.7c1.4,0.5,3.1,1.8,4.4,5.2c0.1,0.3,0,0.7-0.4,0.9
		C28.9,90.3,28.9,90.3,28.8,90.3z M23.5,85.3c-0.2,0-0.4,0.1-0.6,0.1c-1.2,0.4-1.8,1.3-1.8,1.6c0.1,0.2,0.4,0.4,0.9,0.3
		s0.9-0.5,1.1-1C23.3,86,23.4,85.7,23.5,85.3z M17.1,76.7c-0.3,0-0.6,0-0.8,0.1c-0.7,0.2-1.3,0.9-1.6,1.8c-0.2,0.6,0,1.3,0.6,1.7
		c1.1,0.6,2.4,0.4,3.7-0.6c0.6-0.5,1.1-1.2,1.2-2C19,77,18,76.7,17.1,76.7z"/>
</g>
<g class="st0">
	<path class="st1" d="M170.3,102.3c-0.1,0-0.2,0-0.2,0c-0.3-0.1-0.5-0.5-0.4-0.9c1.4-3.7,3.2-5.1,4.7-5.5c-0.2-3.9,2.7-7,2.8-7.2
		l0.1-0.1c0.3-0.2,0.5-0.3,0.7-0.5c0,0,0,0,0-0.1c0-3.3,1-5.7,2.9-7.3c3.4-2.8,8.6-1.7,8.8-1.7c0.4,0.1,0.6,0.4,0.5,0.8
		s-0.4,0.6-0.8,0.5l0,0c0,0-4.7-1-7.7,1.4c-1.5,1.2-2.3,3.1-2.4,5.6c1.9-0.9,3.5-1.2,4.7-0.8c1.2,0.4,2.1,1.4,2.6,2.8
		c0.5,1.3-0.1,2.8-1.3,3.4c-1.7,1-3.6,0.7-5.5-0.8c-0.8-0.7-1.4-1.5-1.7-2.5c-0.1,0-0.1,0.1-0.2,0.1c-0.3,0.4-2.5,2.9-2.4,6
		c1.8,0,3.3,1.1,3.9,2.2c0.4,0.7,0.4,1.3,0,1.8c-0.6,0.8-1.5,1.1-2.5,0.8c-0.9-0.2-1.7-0.9-2.1-1.8c-0.2-0.5-0.4-1-0.5-1.5
		c-1.2,0.4-2.5,1.7-3.7,4.7C170.8,102.1,170.5,102.3,170.3,102.3z M175.9,97c0.1,0.4,0.2,0.7,0.4,1.1c0.3,0.5,0.7,0.9,1.2,1.1
		c0.6,0.2,0.9-0.1,1-0.3c0.1-0.2-0.5-1.2-1.8-1.7C176.5,97.1,176.2,97,175.9,97z M179.4,88.8c0.2,0.9,0.7,1.7,1.4,2.2
		c1.4,1.1,2.8,1.4,4,0.7c0.6-0.4,0.9-1.1,0.7-1.8c-0.4-1.1-1-1.7-1.8-2C182.7,87.5,181.2,87.9,179.4,88.8z"/>
</g>
<g class="st0">
	<g>
		<path class="st1" d="M142.9,32.5c-0.1,0-0.2,0-0.2,0c-0.4-0.1-0.6-0.6-0.5-1l1.3-4.2c0.1-0.4,0.6-0.6,1-0.5s0.6,0.6,0.5,1
			l-1.3,4.2C143.6,32.2,143.3,32.5,142.9,32.5z"/>
	</g>
	<g>
		<path class="st1" d="M139.2,44.8c-0.1,0-0.2,0-0.2,0c-0.4-0.1-0.6-0.6-0.5-1l1.3-4.2c0.1-0.4,0.6-0.6,1-0.5s0.6,0.6,0.5,1
			l-1.3,4.2C139.9,44.6,139.6,44.8,139.2,44.8z"/>
	</g>
	<g>
		<g>
			<path class="st1" d="M145.5,34.5c-0.3,0-0.5-0.1-0.7-0.4c-0.2-0.4-0.1-0.9,0.3-1.1l3.8-2.1c0.4-0.2,0.9-0.1,1.1,0.3
				s0.1,0.9-0.3,1.1l-3.8,2.1C145.7,34.5,145.6,34.5,145.5,34.5z"/>
		</g>
		<g>
			<path class="st1" d="M134.1,40.6c-0.3,0-0.5-0.1-0.7-0.4c-0.2-0.4-0.1-0.9,0.3-1.1l3.8-2.1c0.4-0.2,0.9-0.1,1.1,0.3
				c0.2,0.4,0.1,0.9-0.3,1.1l-3.8,2.1C134.4,40.6,134.3,40.6,134.1,40.6z"/>
		</g>
	</g>
	<g>
		<g>
			<path class="st1" d="M149.9,39c-0.1,0-0.2,0-0.2,0l-4.2-1.3c-0.4-0.1-0.6-0.6-0.5-1s0.6-0.6,1-0.5l4.2,1.3c0.4,0.1,0.6,0.6,0.5,1
				C150.6,38.8,150.3,39,149.9,39z"/>
		</g>
		<g>
			<path class="st1" d="M137.6,35.3c-0.1,0-0.2,0-0.2,0l-4.2-1.3c-0.4-0.1-0.6-0.6-0.5-1s0.6-0.6,1-0.5l4.2,1.3
				c0.4,0.1,0.6,0.6,0.5,1C138.3,35.1,138,35.3,137.6,35.3z"/>
		</g>
	</g>
	<g>
		<g>
			<path class="st1" d="M145.8,44.1c-0.3,0-0.5-0.1-0.7-0.4l-2.1-3.8c-0.2-0.4-0.1-0.9,0.3-1.1c0.4-0.2,0.9-0.1,1.1,0.3l2.1,3.8
				c0.2,0.4,0.1,0.9-0.3,1.1C146,44.1,145.9,44.1,145.8,44.1z"/>
		</g>
		<g>
			<path class="st1" d="M139.7,32.8c-0.3,0-0.5-0.1-0.7-0.4l-2.1-3.8c-0.2-0.4-0.1-0.9,0.3-1.1c0.4-0.2,0.9-0.1,1.1,0.3l2.1,3.8
				c0.2,0.4,0.1,0.9-0.3,1.1C139.9,32.8,139.8,32.8,139.7,32.8z"/>
		</g>
	</g>
</g>
<g class="st0">
	<g>
		<path class="st1" d="M59,20.2c-0.1,0-0.2,0-0.2,0c-0.4-0.1-0.6-0.6-0.5-1l1.4-4.6c0.1-0.4,0.6-0.6,1-0.5s0.6,0.6,0.5,1l-1.4,4.6
			C59.6,20,59.3,20.2,59,20.2z"/>
	</g>
	<g>
		<path class="st1" d="M54.9,33.8c-0.1,0-0.2,0-0.2,0c-0.4-0.1-0.6-0.6-0.5-1l1.4-4.6c0.1-0.4,0.6-0.6,1-0.5s0.6,0.6,0.5,1l-1.4,4.6
			C55.6,33.5,55.2,33.8,54.9,33.8z"/>
	</g>
	<g>
		<g>
			<path class="st1" d="M61.8,22.4c-0.3,0-0.5-0.1-0.7-0.4c-0.2-0.4-0.1-0.9,0.3-1.1l4.2-2.3c0.4-0.2,0.9-0.1,1.1,0.3
				s0.1,0.9-0.3,1.1l-4.2,2.3C62,22.4,61.9,22.4,61.8,22.4z"/>
		</g>
		<g>
			<path class="st1" d="M49.3,29.2c-0.3,0-0.5-0.1-0.7-0.4c-0.2-0.4-0.1-0.9,0.3-1.1l4.2-2.3c0.4-0.2,0.9-0.1,1.1,0.3
				c0.2,0.4,0.1,0.9-0.3,1.1l-4.2,2.3C49.5,29.1,49.4,29.2,49.3,29.2z"/>
		</g>
	</g>
	<g>
		<g>
			<path class="st1" d="M66.7,27.4c-0.1,0-0.2,0-0.2,0L61.9,26c-0.4-0.1-0.6-0.6-0.5-1s0.6-0.6,1-0.5l4.6,1.4c0.4,0.1,0.6,0.6,0.5,1
				C67.4,27.2,67.1,27.4,66.7,27.4z"/>
		</g>
		<g>
			<path class="st1" d="M53.1,23.3c-0.1,0-0.2,0-0.2,0l-4.6-1.4c-0.4-0.1-0.6-0.6-0.5-1s0.6-0.6,1-0.5l4.6,1.4
				c0.4,0.1,0.6,0.6,0.5,1C53.8,23.1,53.5,23.3,53.1,23.3z"/>
		</g>
	</g>
	<g>
		<g>
			<path class="st1" d="M62.1,33c-0.3,0-0.5-0.1-0.7-0.4l-2.3-4.2c-0.2-0.4-0.1-0.9,0.3-1.1c0.4-0.2,0.9-0.1,1.1,0.3l2.3,4.2
				c0.2,0.4,0.1,0.9-0.3,1.1C62.4,33,62.3,33,62.1,33z"/>
		</g>
		<g>
			<path class="st1" d="M55.4,20.5c-0.3,0-0.5-0.1-0.7-0.4l-2.3-4.2c-0.2-0.4-0.1-0.9,0.3-1.1c0.4-0.2,0.9-0.1,1.1,0.3l2.3,4.2
				c0.2,0.4,0.1,0.9-0.3,1.1C55.7,20.5,55.5,20.5,55.4,20.5z"/>
		</g>
	</g>
</g>
<g class="st0">
	<path class="st1" d="M48,156.2c0,0-0.4,4.4-4.9,4.3c0,0,4,1.3,3.1,5.9c0,0,2.3-4.9,5.1-4.6C51.2,161.7,47.6,159.9,48,156.2z"/>
</g>
<g class="st0">
	<circle class="st1" cx="156" cy="169" r="1.8"/>
</g>
<g class="st0">
	<path class="st1" d="M146.2,152.1c0,0-0.4,4.2-4.7,4.1c0,0,3.8,1.3,2.9,5.6c0,0,2.2-4.7,4.9-4.4
		C149.3,157.4,145.8,155.6,146.2,152.1z"/>
</g>
<g class="st0">
	<path class="st2" d="M133.5,52.7c0,0-0.4,4.2-4.7,4.1c0,0,3.8,1.3,2.9,5.6c0,0,2.2-4.7,4.9-4.4C136.6,57.9,133.1,56.2,133.5,52.7z"
		/>
</g>
<g class="st0">
	<path class="st3" d="M46.9,70.4c0,0-0.4,4.2-4.7,4.1c0,0,3.8,1.3,2.9,5.6c0,0,2.2-4.7,4.9-4.4C50,75.6,46.6,73.9,46.9,70.4z"/>
</g>
<g class="st0">
	<circle class="st1" cx="155.1" cy="59.3" r="1.8"/>
</g>
<g class="st0">
	<path class="st3" d="M78.4,38.7l2.3,1.4c0,0,1.6-4.1,6-4.8L86,32.5C86,32.5,80.5,33.2,78.4,38.7z"/>
</g>
<g class="st0">
	<path class="st4" d="M16.4,116.2l2.5-1c0,0,0.9,4.3,5.1,5.7l-1.1,2.6C23,123.4,17.6,121.9,16.4,116.2z"/>
</g>
<g class="st0">
	<path class="st2" d="M177.9,146l0.4-2.4c0,0-4-0.1-6-3.6l-2.1,1.4C170.3,141.4,172.6,145.9,177.9,146z"/>
</g>
<g class="st0">
	<circle class="st1" cx="42.2" cy="57.7" r="1.8"/>
</g>
<g class="st0">
	<path class="st5" d="M167.8,71.6l-2.3-0.8c0,0-0.6,3.9-4.4,5.4l1.1,2.3C162.2,78.5,167,76.8,167.8,71.6z"/>
</g>
<g class="st0">
	<path class="st5" d="M34.1,137.9l1.2,2.1c0,0-3.8,1.4-4.5,5.4l-2.4-0.6C28.3,144.7,29.1,139.7,34.1,137.9z"/>
</g>
<g class="st0">
	<path class="st4" d="M114.3,39.6l-2.5,0.1c0,0,0.8,3.9-2.3,6.6l1.8,1.8C111.4,48,115.4,44.8,114.3,39.6z"/>
</g>
<g class="st0">
	<path class="st2" d="M129.6,122.6l0.4-2.4c0,0-4-0.1-6-3.6l-2.1,1.4C121.9,118,124.3,122.5,129.6,122.6z"/>
</g>
<g class="st0">
	<path class="st2" d="M98.4,26.1l0.4-2.4c0,0-4-0.1-6-3.6l-2.1,1.4C90.8,21.5,93.1,26.1,98.4,26.1z"/>
</g>
<path class="st6" d="M106.3,52.4l1.2,3c0.1,0.2,0.2,0.3,0.3,0.3l3,1.2c0.2,0.1,0.4,0.3,0.4,0.6s-0.1,0.5-0.4,0.6l-3,1.2
	c-0.2,0.1-0.3,0.2-0.3,0.3l-1.2,3c-0.1,0.2-0.3,0.4-0.6,0.4c-0.3,0-0.5-0.1-0.6-0.4l-1.2-3c-0.1-0.2-0.2-0.3-0.3-0.3l-3-1.2
	c-0.2-0.1-0.4-0.3-0.4-0.6s0.1-0.5,0.4-0.6l3-1.2c0.2-0.1,0.3-0.2,0.3-0.3l1.2-3c0.1-0.2,0.3-0.4,0.6-0.4S106.2,52.1,106.3,52.4
	L106.3,52.4z"/>
<path class="st6" d="M60.3,57.7l0.8,1.9c0,0.1,0.1,0.2,0.2,0.2l1.9,0.8c0.2,0.1,0.2,0.2,0.2,0.4s-0.1,0.3-0.2,0.4l-1.9,0.8
	c-0.1,0-0.2,0.1-0.2,0.2l-0.8,1.9c-0.1,0.2-0.2,0.2-0.4,0.2s-0.3-0.1-0.4-0.2l-0.8-1.9c0-0.1-0.1-0.2-0.2-0.2l-1.9-0.8
	c-0.2-0.1-0.2-0.2-0.2-0.4s0.1-0.3,0.2-0.4l1.9-0.8c0.1,0,0.2-0.1,0.2-0.2l0.8-1.9c0.1-0.2,0.2-0.2,0.4-0.2
	C60.1,57.4,60.2,57.5,60.3,57.7L60.3,57.7z"/>
<path class="st6" d="M66,57.7l0.8,0.9c0,0,0.1,0.1,0.2,0.1l1.2,0.1c0.1,0,0.2,0.1,0.2,0.2c0,0.1,0,0.2-0.1,0.2L67.4,60
	c0,0-0.1,0.1-0.1,0.2l-0.1,1.2c0,0.1-0.1,0.2-0.2,0.2s-0.2,0-0.2-0.1l-0.8-1c0,0-0.1-0.1-0.2-0.1l-1.2-0.1c-0.1,0-0.2-0.1-0.2-0.2
	c0-0.1,0-0.2,0.1-0.2l0.9-0.8c0,0,0.1-0.1,0.1-0.2l0.1-1.2c0-0.1,0.1-0.2,0.2-0.2C65.8,57.6,65.9,57.6,66,57.7L66,57.7z"/>
<path class="st6" d="M87.3,44.9v1.2c0,0.1,0,0.1,0.1,0.2l0.8,0.9c0.1,0.1,0.1,0.2,0,0.3c0,0.1-0.1,0.1-0.2,0.1h-1.2
	c-0.1,0-0.1,0-0.2,0.1l-0.9,0.8c-0.1,0.1-0.2,0.1-0.3,0c-0.1,0-0.1-0.1-0.1-0.2v-1.2c0-0.1,0-0.1-0.1-0.2L84.6,46
	c-0.1-0.1-0.1-0.2,0-0.3c0-0.1,0.1-0.1,0.2-0.1H86c0.1,0,0.1,0,0.2-0.1l0.9-0.8c0.1-0.1,0.2-0.1,0.3,0
	C87.3,44.8,87.3,44.8,87.3,44.9L87.3,44.9z"/>
<path class="st6" d="M52,80.7l0.8,0.9c0,0,0.1,0.1,0.2,0.1l1.2,0.1c0.1,0,0.2,0.1,0.2,0.2s0,0.2-0.1,0.2L53.4,83
	c0,0-0.1,0.1-0.1,0.2l-0.1,1.2c0,0.1-0.1,0.2-0.2,0.2c-0.1,0-0.2,0-0.2-0.1l-0.8-1c0,0-0.1-0.1-0.2-0.1l-1.2-0.1
	c-0.1,0-0.2-0.1-0.2-0.2s0-0.2,0.1-0.2l0.9-0.8c0,0,0.1-0.1,0.1-0.2l0.1-1.2c0-0.1,0.1-0.2,0.2-0.2C51.8,80.6,51.9,80.6,52,80.7
	L52,80.7z"/>
<path class="st6" d="M123.9,47.6l0.5,1.2c0,0.1,0.1,0.1,0.1,0.1l1.2,0.5c0.1,0,0.2,0.1,0.2,0.2c0,0.1-0.1,0.2-0.2,0.2l-1.2,0.5
	c-0.1,0-0.1,0.1-0.1,0.1l-0.5,1.2c0,0.1-0.1,0.2-0.2,0.2s-0.2-0.1-0.2-0.2l-0.5-1.2c0-0.1-0.1-0.1-0.1-0.1l-1.2-0.5
	c-0.1,0-0.2-0.1-0.2-0.2c0-0.1,0.1-0.2,0.2-0.2l1.2-0.5c0.1,0,0.1-0.1,0.1-0.1l0.5-1.2c0-0.1,0.1-0.2,0.2-0.2
	C123.8,47.4,123.9,47.5,123.9,47.6L123.9,47.6z"/>
<path class="st6" d="M146.4,66.6l0.4,1c0,0.1,0.1,0.1,0.1,0.1l1,0.4c0.1,0,0.1,0.1,0.1,0.2s0,0.2-0.1,0.2l-1,0.4
	c-0.1,0-0.1,0.1-0.1,0.1l-0.4,1c0,0.1-0.1,0.1-0.2,0.1c-0.1,0-0.2,0-0.2-0.1l-0.4-1c0-0.1-0.1-0.1-0.1-0.1l-1-0.4
	c-0.1,0-0.1-0.1-0.1-0.2s0-0.2,0.1-0.2l1-0.4c0.1,0,0.1-0.1,0.1-0.1l0.4-1c0-0.1,0.1-0.1,0.2-0.1C146.3,66.4,146.3,66.5,146.4,66.6
	L146.4,66.6z"/>
<path class="st6" d="M121.4,63.6l0.4,1c0,0.1,0.1,0.1,0.1,0.1l1,0.4c0.1,0,0.1,0.1,0.1,0.2s0,0.2-0.1,0.2l-1,0.4
	c-0.1,0-0.1,0.1-0.1,0.1l-0.4,1c0,0.1-0.1,0.1-0.2,0.1s-0.2,0-0.2-0.1l-0.4-1c0-0.1-0.1-0.1-0.1-0.1l-1-0.4c-0.1,0-0.1-0.1-0.1-0.2
	s0-0.2,0.1-0.2l1-0.4c0.1,0,0.1-0.1,0.1-0.1l0.4-1c0-0.1,0.1-0.1,0.2-0.1C121.3,63.4,121.3,63.5,121.4,63.6L121.4,63.6z"/>
</svg>
