<svg id="logo" xmlns="http://www.w3.org/2000/svg" width="90.687" height="31.312" viewBox="0 0 90.687 31.312">
  <defs>
    <style>
      .cls-1 {
        font-size: 26px;
        text-anchor: middle;
        font-family: Bahnschrift;
        font-weight: 600;
      }

      .cls-1, .cls-2 {
        fill: #fff;
      }

      .cls-2 {
        fill-rule: evenodd;
      }
    </style>
  </defs>
  <text id="SMG" class="cls-1" x="65.962" y="24.965">SMG</text>
  <path class="cls-2" d="M156.792,793.95a0.2,0.2,0,0,1,.278-0.072,0.191,0.191,0,0,1,.072.072,10.228,10.228,0,0,0,3.863,3.784,5.755,5.755,0,0,1,3.334,4.249,4.049,4.049,0,0,1-5.666,4.523,0.4,0.4,0,0,0-.538.538,5.977,5.977,0,0,0,4.144,3.312v0.589H151.656v-0.589a5.979,5.979,0,0,0,4.144-3.312,0.4,0.4,0,0,0-.2-0.538,0.409,0.409,0,0,0-.342,0,4.047,4.047,0,0,1-5.666-4.523,5.754,5.754,0,0,1,3.333-4.249A10.221,10.221,0,0,0,156.792,793.95Zm-0.281-6.585a15.645,15.645,0,1,0,16.1,15.693v-0.073a15.634,15.634,0,0,0-15.643-15.627C156.815,787.358,156.663,787.361,156.511,787.365Zm0.05,1.721a13.914,13.914,0,0,1,14.32,13.493c0,0.136.006,0.271,0.006,0.406a13.919,13.919,0,0,1-27.838,0v0A13.912,13.912,0,0,1,156.561,789.086Z" transform="translate(-141.313 -787.344)"/>
</svg>
