<svg xmlns="http://www.w3.org/2000/svg" viewBox="0 0 92.48 49.26"><defs><style>.cls-1{opacity:0.9;}.cls-2{fill:#11b300;}</style></defs><g id="Layer_2" data-name="Layer 2"><g id="Layer_1-2" data-name="Layer 1"><g class="cls-1"><path class="cls-2" d="M68.39,16.09l-15.3-2.22L46.24,0,39.39,13.87l-15.3,2.22,11.07,10.8L32.55,42.14l13.69-7.2,13.69,7.2L57.32,26.89Z"/><path class="cls-2" d="M82.56,30.93l-4.44-9-4.44,9-9.92,1.45,7.18,7-1.69,9.89,8.87-4.67L87,49.26,85.3,39.37l7.18-7Z"/><path class="cls-2" d="M18.8,30.93l-4.44-9-4.44,9L0,32.38l7.18,7L5.49,49.26l8.87-4.67,8.87,4.67-1.69-9.89,7.18-7Z"/></g></g></g></svg>